HIERARCHY
ROOT Hips
{
	OFFSET 0.00000 0.00000 0.00000
	CHANNELS 6 Xposition Yposition Zposition Zrotation Yrotation Xrotation 
	JOINT LHipJoint
	{
		OFFSET 0 0 0
		CHANNELS 3 Zrotation Yrotation Xrotation
		JOINT LeftHip
		{
			OFFSET 1.57338 -1.94743 0.52196
			CHANNELS 3 Zrotation Yrotation Xrotation
			JOINT LeftKnee
			{
				OFFSET 2.60333 -7.15259 0.00000
				CHANNELS 3 Zrotation Yrotation Xrotation
				JOINT LeftAnkle
				{
					OFFSET 2.77855 -7.63400 0.00000
					CHANNELS 3 Zrotation Yrotation Xrotation
					JOINT LeftToe
					{
						OFFSET 0.19847 -0.54529 2.28466
						CHANNELS 3 Zrotation Yrotation Xrotation
						End Site
						{
							OFFSET 0.00000 -0.00000 1.17993
						}
					}
				}
			}
		}
	}
	JOINT RHipJoint
	{
		OFFSET 0 0 0
		CHANNELS 3 Zrotation Yrotation Xrotation
		JOINT RightHip
		{
			OFFSET -1.61527 -1.94743 0.52196
			CHANNELS 3 Zrotation Yrotation Xrotation
			JOINT RightKnee
			{
				OFFSET -2.53829 -6.97390 0.00000
				CHANNELS 3 Zrotation Yrotation Xrotation
				JOINT RightAnkle
				{
					OFFSET -2.80762 -7.71387 0.00000
					CHANNELS 3 Zrotation Yrotation Xrotation
					JOINT RightToe
					{
						OFFSET -0.30536 -0.83898 2.28801
						CHANNELS 3 Zrotation Yrotation Xrotation
						End Site
						{
							OFFSET -0.00000 -0.00000 1.21323
						}
					}
				}
			}
		}
	}
	JOINT lowerback
	{
		OFFSET 0 0 0
		CHANNELS 3 Zrotation Yrotation Xrotation
		JOINT Chest
		{
			OFFSET -0.04381 1.99497 -0.19778
			CHANNELS 3 Zrotation Yrotation Xrotation
			JOINT Chest2
			{
				OFFSET -0.01959 2.01295 -0.04372
				CHANNELS 3 Zrotation Yrotation Xrotation
				JOINT lowerneck
				{
					OFFSET 0 0 0
					CHANNELS 3 Zrotation Yrotation Xrotation
					JOINT Neck
					{
						OFFSET -0.05459 1.76913 0.09708
						CHANNELS 3 Zrotation Yrotation Xrotation
						JOINT Head
						{
							OFFSET 0.09461 1.77368 -0.11172
							CHANNELS 3 Zrotation Yrotation Xrotation
							End Site
							{
								OFFSET 0.03812 1.78157 -0.04834
							}
						}
					}
				}
				JOINT LeftCollar
				{
					OFFSET 0 0 0
					CHANNELS 3 Zrotation Yrotation Xrotation
					JOINT LeftShoulder
					{
						OFFSET 3.50922 1.24034 -0.28866
CHANNELS 3 Zrotation Xrotation Yrotation
						JOINT LeftElbow
						{
OFFSET 0 -5.401880 0.000000
CHANNELS 3 Zrotation Xrotation Yrotation
							JOINT LeftWrist
							{
OFFSET 0 -3.685590 0.000000
CHANNELS 3 Zrotation Xrotation Yrotation
								JOINT lhand
								{
									OFFSET 0 0 0
CHANNELS 3 Zrotation Xrotation Yrotation
									JOINT LFingers
									{
OFFSET 0 -0.617530 0.000000
CHANNELS 3 Zrotation Xrotation Yrotation
										End Site
										{
OFFSET 0 -0.497870 0.000000
										}
									}
								}
								JOINT LThumb
								{
OFFSET 0 0.000000 0.000000
CHANNELS 3 Zrotation Xrotation Yrotation
									End Site
									{
OFFSET 0 -0.505470 0.505470
									}
								}
							}
						}
					}
				}
				JOINT RightCollar
				{
					OFFSET 0 0 0
					CHANNELS 3 Zrotation Yrotation Xrotation
					JOINT RightShoulder
					{
						OFFSET -2.95373 1.39649 -0.27346
CHANNELS 3 Zrotation Xrotation Yrotation
						JOINT RightElbow
						{
OFFSET 0 -6.106700 -0.000000
CHANNELS 3 Zrotation Xrotation Yrotation
							JOINT RightWrist
							{
OFFSET 0 -3.630520 0.000000
CHANNELS 3 Zrotation Xrotation Yrotation
								JOINT rhand
								{
									OFFSET 0 0 0
CHANNELS 3 Zrotation Xrotation Yrotation
									JOINT RFingers
									{
OFFSET 0 -0.583850 0.000000
CHANNELS 3 Zrotation Xrotation Yrotation
										End Site
										{
OFFSET 0 -0.470710 0.000000
										}
									}
								}
								JOINT RThumb
								{
OFFSET 0 0.000000 0.000000
CHANNELS 3 Zrotation Xrotation Yrotation
									End Site
									{
OFFSET 0 -0.477900 0.477900
									}
								}
							}
						}
					}
				}
			}
		}
	}
}
MOTION
Frames: 4
Frame Time: 0.008333333333333333
-0.196402 17.166040 -7.484055 4.518020 1.884114 8.214539 0.000000 0.000000 0.000000 -21.059762 -0.606257 -17.324371 9.055192 16.835369 56.269584 0.913416 -11.821704 -17.756573 1.300739 -7.222601 -20.377722 0.000000 0.000000 0.000000 13.062538 14.870381 -13.630638 -10.311011 -17.574193 60.514004 -1.913205 1.301393 -25.772316 -1.633618 8.055706 -22.884221 -3.660480 -0.140257 19.758463 0.284145 -0.966365 1.104925 2.668209 -0.284090 -9.823674 -6.197001 -2.603756 -17.371623 6.263509 -2.155151 -11.019657 3.033658 -0.805326 -0.473123 0.000000 0.000000 0.000000 51.153158 -66.773531 -8.626113 72.644039 -58.830606 45.028265 32.654205 9.445309 -23.033773 0.000000 0.000000 0.000000 -7.125000 0.000000 0.000000 3.993621 56.728602 -1.149715 0.000000 0.000000 0.000000 -28.017863 -67.632152 33.447135 -67.767526 -58.046997 -40.872425 -31.929907 -0.270240 -3.528848 0.000000 0.000000 0.000000 7.125000 0.000000 0.000000 -4.013145 25.817319 -1.875490
-0.184317 17.316264 -7.289668 4.445015 1.807027 7.969340 0.000000 0.000000 0.000000 -21.035260 -0.005706 -15.670406 8.470023 16.442734 54.220314 0.727247 -11.167548 -15.942853 1.375294 -7.419777 -20.965825 0.000000 0.000000 0.000000 13.389961 14.484164 -11.954471 -9.726360 -17.243297 58.556004 -1.642312 0.960054 -23.895369 -1.605636 7.991231 -22.687467 -3.556665 -0.155935 18.872872 0.325457 -0.932149 0.845708 2.631618 -0.273386 -9.621382 -6.271799 -2.566424 -17.074544 6.236620 -2.129110 -10.461166 3.037507 -0.794964 -0.333963 0.000000 0.000000 0.000000 52.039786 -66.471308 -7.767903 72.500102 -58.810379 44.905168 32.598013 9.401677 -22.773551 0.000000 0.000000 0.000000 -7.125000 0.000000 0.000000 3.976322 56.423415 -1.114720 0.000000 0.000000 0.000000 -28.909871 -67.774626 32.439425 -67.096706 -57.919412 -40.304055 -31.534920 -0.071815 -3.344881 0.000000 0.000000 0.000000 7.125000 0.000000 0.000000 -3.730637 26.054369 -1.716331
-0.172628 17.473474 -7.088780 4.335958 1.729345 7.785733 0.000000 0.000000 0.000000 -20.960934 0.556524 -14.066377 7.882738 16.027424 52.131289 0.541012 -10.448780 -13.998455 1.438323 -7.581629 -21.450708 0.000000 0.000000 0.000000 13.737768 14.148941 -10.326785 -9.142766 -16.894595 56.576540 -1.362120 0.570190 -21.868814 -1.612627 8.007786 -22.737745 -3.439275 -0.172825 17.784653 0.384795 -0.886849 0.628713 2.599964 -0.261977 -9.257804 -6.325264 -2.528674 -16.753973 6.181700 -2.106684 -9.961909 3.028111 -0.787973 -0.219705 0.000000 0.000000 0.000000 52.892610 -66.197379 -6.930739 72.222203 -58.771398 44.667480 32.589289 9.332328 -22.460418 0.000000 0.000000 0.000000 -7.125000 0.000000 0.000000 4.022070 56.069791 -1.093300 0.000000 0.000000 0.000000 -29.868452 -67.914610 31.403442 -66.232976 -57.753086 -39.572592 -31.513500 -0.150392 -3.399969 0.000000 0.000000 0.000000 7.125000 0.000000 0.000000 -3.710895 25.990948 -1.712752
-0.161717 17.640930 -6.880573 4.130613 1.668679 7.677373 0.000000 0.000000 0.000000 -20.757567 1.041997 -12.549305 7.307072 15.570716 50.001600 0.366166 -9.539996 -11.669130 1.448977 -7.609042 -21.532870 0.000000 0.000000 0.000000 14.163978 13.887821 -8.808698 -8.574863 -16.514651 54.589848 -1.081837 -0.003240 -19.547676 -1.584076 7.939533 -22.530856 -3.206751 -0.202431 16.590448 0.449851 -0.838666 0.379377 2.508295 -0.253359 -8.865590 -6.380743 -2.488728 -16.442367 6.179065 -2.083114 -9.337318 3.037698 -0.780205 -0.062220 0.000000 0.000000 0.000000 53.382372 -65.829907 -6.531563 71.802775 -58.710369 44.309031 32.547812 9.319243 -22.291559 0.000000 0.000000 0.000000 -7.125000 0.000000 0.000000 4.004830 55.870687 -1.069456 0.000000 0.000000 0.000000 -30.725987 -67.899755 30.577007 -65.213721 -57.541795 -38.712134 -31.654971 -0.234046 -3.258499 0.000000 0.000000 0.000000 7.125000 0.000000 0.000000 -3.827146 26.150707 -1.751759
